<svg width="32" height="43" fill="none" xmlns="http://www.w3.org/2000/svg"><path d="M16 1c4.118 0 8.063 1.567 10.968 4.35C29.872 8.132 31.5 11.9 31.5 15.825c0 3.068-1.23 7.797-3.706 12.657-2.47 4.851-6.157 9.779-11.019 13.271A1.33 1.33 0 0116 42a1.33 1.33 0 01-.775-.247c-4.862-3.492-8.548-8.42-11.02-13.271C1.73 23.622.5 18.892.5 15.825.5 11.9 2.128 8.132 5.032 5.35 7.937 2.567 11.882 1 16 1zm0 9.217c-1.54 0-3.022.586-4.117 1.635a5.501 5.501 0 00-1.716 3.973c0 1.495.62 2.924 1.716 3.973A5.955 5.955 0 0016 21.434c1.54 0 3.022-.586 4.117-1.636a5.501 5.501 0 001.716-3.973c0-1.494-.62-2.923-1.716-3.973A5.955 5.955 0 0016 10.217z" fill="#E31717" stroke="#CC1515"/></svg>